<svg width="1400" height="900" viewBox="0 0 1400 900" fill="none" xmlns="http://www.w3.org/2000/svg">
  <rect width="1400" height="900" rx="36" fill="#08111F"/>
  <rect x="34" y="26" width="1332" height="74" rx="20" fill="#0F1C34" stroke="#213A63"/>
  <rect x="70" y="48" width="150" height="30" rx="15" fill="#152746"/>
  <rect x="238" y="48" width="150" height="30" rx="15" fill="#152746"/>
  <rect x="406" y="48" width="150" height="30" rx="15" fill="#152746"/>
  <rect x="574" y="48" width="150" height="30" rx="15" fill="#152746"/>
  <rect x="742" y="48" width="150" height="30" rx="15" fill="#152746"/>
  <rect x="74" y="146" width="1252" height="140" rx="28" fill="#0F1C34" stroke="#213A63"/>
  <rect x="110" y="184" width="360" height="24" rx="12" fill="#2C4B77"/>
  <rect x="110" y="224" width="620" height="18" rx="9" fill="#1B2E52"/>
  <rect x="74" y="320" width="1252" height="234" rx="28" fill="#0F1C34" stroke="#213A63"/>
  <rect x="110" y="360" width="180" height="20" rx="10" fill="#2C4B77"/>
  <rect x="110" y="404" width="220" height="50" rx="18" fill="#FF5ABF"/>
  <rect x="350" y="404" width="220" height="50" rx="18" fill="#5CC7FF"/>
  <rect x="590" y="404" width="220" height="50" rx="18" fill="#A88BFF"/>
  <rect x="850" y="384" width="420" height="128" rx="24" fill="#152746"/>
  <rect x="74" y="588" width="1252" height="238" rx="28" fill="#0F1C34" stroke="#213A63"/>
  <rect x="110" y="626" width="200" height="20" rx="10" fill="#2C4B77"/>
  <rect x="110" y="668" width="570" height="116" rx="24" fill="#152746"/>
  <rect x="704" y="668" width="570" height="116" rx="24" fill="#152746"/>
  <circle cx="1180" cy="180" r="72" fill="#5CC7FF" fill-opacity="0.18"/>
  <circle cx="1050" cy="470" r="88" fill="#FF5ABF" fill-opacity="0.14"/>
</svg>
